<mxfile host="app.diagrams.net" agent="Mozilla/5.0 (Windows NT 10.0; Win64; x64) AppleWebKit/537.36 (KHTML, like Gecko) Chrome/138.0.0.0 Safari/537.36" version="28.0.7">
  <diagram id="R2lEEEUBdFMjLlhIrx00" name="Page-1">
    <mxGraphModel dx="2275" dy="790" grid="1" gridSize="10" guides="1" tooltips="1" connect="1" arrows="1" fold="1" page="1" pageScale="1" pageWidth="850" pageHeight="1100" math="0" shadow="0" extFonts="Permanent Marker^https://fonts.googleapis.com/css?family=Permanent+Marker">
      <root>
        <mxCell id="0" />
        <mxCell id="1" parent="0" />
        <mxCell id="rAxvqdYZocQZOTgR6kvq-44" value="Employee" style="whiteSpace=wrap;html=1;align=center;" vertex="1" parent="1">
          <mxGeometry x="150" y="150" width="100" height="40" as="geometry" />
        </mxCell>
        <mxCell id="rAxvqdYZocQZOTgR6kvq-46" value="SSN" style="ellipse;whiteSpace=wrap;html=1;align=center;fontStyle=4;" vertex="1" parent="1">
          <mxGeometry x="230" y="20" width="100" height="40" as="geometry" />
        </mxCell>
        <mxCell id="rAxvqdYZocQZOTgR6kvq-48" style="edgeStyle=orthogonalEdgeStyle;rounded=0;orthogonalLoop=1;jettySize=auto;html=1;exitX=0.5;exitY=0;exitDx=0;exitDy=0;entryX=0.484;entryY=0.888;entryDx=0;entryDy=0;entryPerimeter=0;endArrow=none;endFill=0;" edge="1" parent="1" source="rAxvqdYZocQZOTgR6kvq-44" target="rAxvqdYZocQZOTgR6kvq-46">
          <mxGeometry relative="1" as="geometry">
            <Array as="points">
              <mxPoint x="240" y="150" />
              <mxPoint x="240" y="105" />
              <mxPoint x="278" y="105" />
            </Array>
          </mxGeometry>
        </mxCell>
        <mxCell id="rAxvqdYZocQZOTgR6kvq-49" value="Fname" style="ellipse;whiteSpace=wrap;html=1;align=center;" vertex="1" parent="1">
          <mxGeometry x="90" y="10" width="100" height="40" as="geometry" />
        </mxCell>
        <mxCell id="rAxvqdYZocQZOTgR6kvq-55" style="edgeStyle=orthogonalEdgeStyle;rounded=0;orthogonalLoop=1;jettySize=auto;html=1;exitX=1;exitY=0.5;exitDx=0;exitDy=0;entryX=0;entryY=0;entryDx=0;entryDy=0;endArrow=none;endFill=0;" edge="1" parent="1" source="rAxvqdYZocQZOTgR6kvq-50" target="rAxvqdYZocQZOTgR6kvq-44">
          <mxGeometry relative="1" as="geometry">
            <Array as="points">
              <mxPoint x="70" y="150" />
            </Array>
          </mxGeometry>
        </mxCell>
        <mxCell id="rAxvqdYZocQZOTgR6kvq-50" value="Lname" style="ellipse;whiteSpace=wrap;html=1;align=center;" vertex="1" parent="1">
          <mxGeometry x="-30" y="20" width="100" height="40" as="geometry" />
        </mxCell>
        <mxCell id="rAxvqdYZocQZOTgR6kvq-51" value="BirthDate" style="ellipse;whiteSpace=wrap;html=1;align=center;" vertex="1" parent="1">
          <mxGeometry x="-280" y="400" width="100" height="40" as="geometry" />
        </mxCell>
        <mxCell id="rAxvqdYZocQZOTgR6kvq-52" value="Gender" style="ellipse;whiteSpace=wrap;html=1;align=center;" vertex="1" parent="1">
          <mxGeometry x="-250" y="470" width="100" height="40" as="geometry" />
        </mxCell>
        <mxCell id="rAxvqdYZocQZOTgR6kvq-54" style="edgeStyle=orthogonalEdgeStyle;rounded=0;orthogonalLoop=1;jettySize=auto;html=1;exitX=0.5;exitY=1;exitDx=0;exitDy=0;endArrow=none;endFill=0;" edge="1" parent="1" source="rAxvqdYZocQZOTgR6kvq-49">
          <mxGeometry relative="1" as="geometry">
            <mxPoint x="159" y="150" as="targetPoint" />
            <Array as="points">
              <mxPoint x="140" y="70" />
              <mxPoint x="150" y="70" />
              <mxPoint x="150" y="100" />
              <mxPoint x="159" y="100" />
            </Array>
          </mxGeometry>
        </mxCell>
        <mxCell id="rAxvqdYZocQZOTgR6kvq-57" value="Department" style="whiteSpace=wrap;html=1;align=center;" vertex="1" parent="1">
          <mxGeometry x="640" y="185" width="100" height="40" as="geometry" />
        </mxCell>
        <mxCell id="rAxvqdYZocQZOTgR6kvq-64" style="edgeStyle=orthogonalEdgeStyle;rounded=0;orthogonalLoop=1;jettySize=auto;html=1;exitX=0.5;exitY=1;exitDx=0;exitDy=0;entryX=0.5;entryY=0;entryDx=0;entryDy=0;endArrow=none;endFill=0;" edge="1" parent="1" source="rAxvqdYZocQZOTgR6kvq-58" target="rAxvqdYZocQZOTgR6kvq-57">
          <mxGeometry relative="1" as="geometry" />
        </mxCell>
        <mxCell id="rAxvqdYZocQZOTgR6kvq-58" value="DNUM" style="ellipse;whiteSpace=wrap;html=1;align=center;fontStyle=4;" vertex="1" parent="1">
          <mxGeometry x="620" y="115" width="100" height="40" as="geometry" />
        </mxCell>
        <mxCell id="rAxvqdYZocQZOTgR6kvq-59" value="Dname" style="ellipse;whiteSpace=wrap;html=1;align=center;" vertex="1" parent="1">
          <mxGeometry x="800" y="185" width="100" height="40" as="geometry" />
        </mxCell>
        <mxCell id="rAxvqdYZocQZOTgR6kvq-63" style="edgeStyle=orthogonalEdgeStyle;rounded=0;orthogonalLoop=1;jettySize=auto;html=1;exitX=0;exitY=0.5;exitDx=0;exitDy=0;entryX=1;entryY=0;entryDx=0;entryDy=0;endArrow=none;endFill=0;" edge="1" parent="1" source="rAxvqdYZocQZOTgR6kvq-61" target="rAxvqdYZocQZOTgR6kvq-57">
          <mxGeometry relative="1" as="geometry" />
        </mxCell>
        <mxCell id="rAxvqdYZocQZOTgR6kvq-61" value="Location" style="ellipse;shape=doubleEllipse;margin=3;whiteSpace=wrap;html=1;align=center;" vertex="1" parent="1">
          <mxGeometry x="770" y="115" width="100" height="40" as="geometry" />
        </mxCell>
        <mxCell id="rAxvqdYZocQZOTgR6kvq-62" style="edgeStyle=orthogonalEdgeStyle;rounded=0;orthogonalLoop=1;jettySize=auto;html=1;exitX=0;exitY=0.5;exitDx=0;exitDy=0;entryX=0.957;entryY=0.552;entryDx=0;entryDy=0;entryPerimeter=0;endArrow=none;endFill=0;" edge="1" parent="1" source="rAxvqdYZocQZOTgR6kvq-59" target="rAxvqdYZocQZOTgR6kvq-57">
          <mxGeometry relative="1" as="geometry" />
        </mxCell>
        <mxCell id="rAxvqdYZocQZOTgR6kvq-66" value="assigned to" style="shape=rhombus;perimeter=rhombusPerimeter;whiteSpace=wrap;html=1;align=center;" vertex="1" parent="1">
          <mxGeometry x="375" y="50" width="120" height="60" as="geometry" />
        </mxCell>
        <mxCell id="rAxvqdYZocQZOTgR6kvq-69" value="supervise" style="shape=rhombus;perimeter=rhombusPerimeter;whiteSpace=wrap;html=1;align=center;" vertex="1" parent="1">
          <mxGeometry x="80" y="240" width="80" height="60" as="geometry" />
        </mxCell>
        <mxCell id="rAxvqdYZocQZOTgR6kvq-76" value="" style="endArrow=none;html=1;rounded=0;exitX=1;exitY=0.5;exitDx=0;exitDy=0;" edge="1" parent="1" source="rAxvqdYZocQZOTgR6kvq-66">
          <mxGeometry relative="1" as="geometry">
            <mxPoint x="515.0000000000002" y="81.99999999999994" as="sourcePoint" />
            <mxPoint x="640" y="210" as="targetPoint" />
            <Array as="points">
              <mxPoint x="495" y="210" />
            </Array>
          </mxGeometry>
        </mxCell>
        <mxCell id="rAxvqdYZocQZOTgR6kvq-77" value="1" style="resizable=0;html=1;whiteSpace=wrap;align=right;verticalAlign=bottom;" connectable="0" vertex="1" parent="rAxvqdYZocQZOTgR6kvq-76">
          <mxGeometry x="1" relative="1" as="geometry">
            <mxPoint x="-91" y="-6" as="offset" />
          </mxGeometry>
        </mxCell>
        <mxCell id="rAxvqdYZocQZOTgR6kvq-78" value="" style="endArrow=none;html=1;rounded=0;entryX=0.011;entryY=0.411;entryDx=0;entryDy=0;entryPerimeter=0;exitX=1;exitY=1;exitDx=0;exitDy=0;" edge="1" parent="1" source="rAxvqdYZocQZOTgR6kvq-44" target="rAxvqdYZocQZOTgR6kvq-66">
          <mxGeometry relative="1" as="geometry">
            <mxPoint x="200" y="225" as="sourcePoint" />
            <mxPoint x="360" y="225" as="targetPoint" />
            <Array as="points">
              <mxPoint x="376" y="190" />
            </Array>
          </mxGeometry>
        </mxCell>
        <mxCell id="rAxvqdYZocQZOTgR6kvq-79" value="M" style="resizable=0;html=1;whiteSpace=wrap;align=left;verticalAlign=bottom;" connectable="0" vertex="1" parent="rAxvqdYZocQZOTgR6kvq-78">
          <mxGeometry x="-1" relative="1" as="geometry">
            <mxPoint x="50" as="offset" />
          </mxGeometry>
        </mxCell>
        <mxCell id="rAxvqdYZocQZOTgR6kvq-80" value="" style="resizable=0;html=1;whiteSpace=wrap;align=right;verticalAlign=bottom;" connectable="0" vertex="1" parent="rAxvqdYZocQZOTgR6kvq-78">
          <mxGeometry x="1" relative="1" as="geometry" />
        </mxCell>
        <mxCell id="rAxvqdYZocQZOTgR6kvq-81" value="" style="shape=link;html=1;rounded=0;exitX=0.391;exitY=1.069;exitDx=0;exitDy=0;exitPerimeter=0;entryX=1.019;entryY=0.425;entryDx=0;entryDy=0;entryPerimeter=0;" edge="1" parent="1" source="rAxvqdYZocQZOTgR6kvq-44" target="rAxvqdYZocQZOTgR6kvq-69">
          <mxGeometry relative="1" as="geometry">
            <mxPoint x="200" y="225" as="sourcePoint" />
            <mxPoint x="360" y="225" as="targetPoint" />
            <Array as="points">
              <mxPoint x="190" y="266" />
            </Array>
          </mxGeometry>
        </mxCell>
        <mxCell id="rAxvqdYZocQZOTgR6kvq-82" value="1" style="resizable=0;html=1;whiteSpace=wrap;align=right;verticalAlign=bottom;" connectable="0" vertex="1" parent="rAxvqdYZocQZOTgR6kvq-81">
          <mxGeometry x="1" relative="1" as="geometry">
            <mxPoint x="19" y="-30" as="offset" />
          </mxGeometry>
        </mxCell>
        <mxCell id="rAxvqdYZocQZOTgR6kvq-83" value="" style="shape=link;html=1;rounded=0;exitX=0.116;exitY=1.103;exitDx=0;exitDy=0;exitPerimeter=0;entryX=-0.067;entryY=0.506;entryDx=0;entryDy=0;entryPerimeter=0;" edge="1" parent="1" source="rAxvqdYZocQZOTgR6kvq-44" target="rAxvqdYZocQZOTgR6kvq-69">
          <mxGeometry relative="1" as="geometry">
            <mxPoint x="20" y="320" as="sourcePoint" />
            <mxPoint x="180" y="320" as="targetPoint" />
            <Array as="points">
              <mxPoint x="10" y="270" />
            </Array>
          </mxGeometry>
        </mxCell>
        <mxCell id="rAxvqdYZocQZOTgR6kvq-84" value="M" style="resizable=0;html=1;whiteSpace=wrap;align=left;verticalAlign=bottom;" connectable="0" vertex="1" parent="rAxvqdYZocQZOTgR6kvq-83">
          <mxGeometry x="-1" relative="1" as="geometry">
            <mxPoint x="-102" y="76" as="offset" />
          </mxGeometry>
        </mxCell>
        <mxCell id="rAxvqdYZocQZOTgR6kvq-85" value="" style="resizable=0;html=1;whiteSpace=wrap;align=right;verticalAlign=bottom;" connectable="0" vertex="1" parent="rAxvqdYZocQZOTgR6kvq-83">
          <mxGeometry x="1" relative="1" as="geometry" />
        </mxCell>
        <mxCell id="rAxvqdYZocQZOTgR6kvq-86" value="HireDate" style="ellipse;whiteSpace=wrap;html=1;align=center;" vertex="1" parent="1">
          <mxGeometry x="385" y="350" width="100" height="40" as="geometry" />
        </mxCell>
        <mxCell id="rAxvqdYZocQZOTgR6kvq-89" style="edgeStyle=orthogonalEdgeStyle;rounded=0;orthogonalLoop=1;jettySize=auto;html=1;exitX=0.5;exitY=1;exitDx=0;exitDy=0;entryX=0.5;entryY=0;entryDx=0;entryDy=0;endArrow=none;endFill=0;" edge="1" parent="1" source="rAxvqdYZocQZOTgR6kvq-88" target="rAxvqdYZocQZOTgR6kvq-86">
          <mxGeometry relative="1" as="geometry" />
        </mxCell>
        <mxCell id="rAxvqdYZocQZOTgR6kvq-88" value="manage by" style="shape=rhombus;perimeter=rhombusPerimeter;whiteSpace=wrap;html=1;align=center;" vertex="1" parent="1">
          <mxGeometry x="375" y="265" width="120" height="60" as="geometry" />
        </mxCell>
        <mxCell id="rAxvqdYZocQZOTgR6kvq-90" value="" style="endArrow=none;html=1;rounded=0;exitX=0.909;exitY=0.966;exitDx=0;exitDy=0;exitPerimeter=0;entryX=0;entryY=0.5;entryDx=0;entryDy=0;" edge="1" parent="1" source="rAxvqdYZocQZOTgR6kvq-44" target="rAxvqdYZocQZOTgR6kvq-88">
          <mxGeometry relative="1" as="geometry">
            <mxPoint x="270" y="270" as="sourcePoint" />
            <mxPoint x="430" y="270" as="targetPoint" />
            <Array as="points">
              <mxPoint x="240" y="295" />
            </Array>
          </mxGeometry>
        </mxCell>
        <mxCell id="rAxvqdYZocQZOTgR6kvq-91" value="1" style="resizable=0;html=1;whiteSpace=wrap;align=right;verticalAlign=bottom;" connectable="0" vertex="1" parent="rAxvqdYZocQZOTgR6kvq-90">
          <mxGeometry x="1" relative="1" as="geometry">
            <mxPoint x="-17" y="-26" as="offset" />
          </mxGeometry>
        </mxCell>
        <mxCell id="rAxvqdYZocQZOTgR6kvq-92" value="" style="endArrow=none;html=1;rounded=0;entryX=0.105;entryY=1.004;entryDx=0;entryDy=0;exitX=1;exitY=0.5;exitDx=0;exitDy=0;entryPerimeter=0;" edge="1" parent="1" source="rAxvqdYZocQZOTgR6kvq-88" target="rAxvqdYZocQZOTgR6kvq-57">
          <mxGeometry relative="1" as="geometry">
            <mxPoint x="500" y="319.66" as="sourcePoint" />
            <mxPoint x="660" y="319.66" as="targetPoint" />
            <Array as="points">
              <mxPoint x="651" y="295" />
            </Array>
          </mxGeometry>
        </mxCell>
        <mxCell id="rAxvqdYZocQZOTgR6kvq-93" value="1" style="resizable=0;html=1;whiteSpace=wrap;align=right;verticalAlign=bottom;" connectable="0" vertex="1" parent="rAxvqdYZocQZOTgR6kvq-92">
          <mxGeometry x="1" relative="1" as="geometry">
            <mxPoint x="-95" y="55" as="offset" />
          </mxGeometry>
        </mxCell>
        <mxCell id="rAxvqdYZocQZOTgR6kvq-99" style="edgeStyle=orthogonalEdgeStyle;rounded=0;orthogonalLoop=1;jettySize=auto;html=1;exitX=0.75;exitY=0;exitDx=0;exitDy=0;entryX=0;entryY=0.5;entryDx=0;entryDy=0;endArrow=none;endFill=0;" edge="1" parent="1" source="rAxvqdYZocQZOTgR6kvq-94" target="rAxvqdYZocQZOTgR6kvq-96">
          <mxGeometry relative="1" as="geometry" />
        </mxCell>
        <mxCell id="rAxvqdYZocQZOTgR6kvq-100" style="edgeStyle=orthogonalEdgeStyle;rounded=0;orthogonalLoop=1;jettySize=auto;html=1;exitX=1;exitY=0;exitDx=0;exitDy=0;entryX=0;entryY=0.5;entryDx=0;entryDy=0;endArrow=none;endFill=0;" edge="1" parent="1" source="rAxvqdYZocQZOTgR6kvq-94" target="rAxvqdYZocQZOTgR6kvq-95">
          <mxGeometry relative="1" as="geometry" />
        </mxCell>
        <mxCell id="rAxvqdYZocQZOTgR6kvq-101" style="edgeStyle=orthogonalEdgeStyle;rounded=0;orthogonalLoop=1;jettySize=auto;html=1;exitX=1;exitY=0.5;exitDx=0;exitDy=0;entryX=0;entryY=0.5;entryDx=0;entryDy=0;endArrow=none;endFill=0;" edge="1" parent="1" source="rAxvqdYZocQZOTgR6kvq-94" target="rAxvqdYZocQZOTgR6kvq-97">
          <mxGeometry relative="1" as="geometry" />
        </mxCell>
        <mxCell id="rAxvqdYZocQZOTgR6kvq-94" value="Project" style="whiteSpace=wrap;html=1;align=center;" vertex="1" parent="1">
          <mxGeometry x="710" y="440" width="100" height="40" as="geometry" />
        </mxCell>
        <mxCell id="rAxvqdYZocQZOTgR6kvq-95" value="PNumber" style="ellipse;whiteSpace=wrap;html=1;align=center;fontStyle=4;" vertex="1" parent="1">
          <mxGeometry x="900" y="400" width="100" height="40" as="geometry" />
        </mxCell>
        <mxCell id="rAxvqdYZocQZOTgR6kvq-96" value="PName" style="ellipse;whiteSpace=wrap;html=1;align=center;" vertex="1" parent="1">
          <mxGeometry x="890" y="310" width="100" height="40" as="geometry" />
        </mxCell>
        <mxCell id="rAxvqdYZocQZOTgR6kvq-97" value="Location" style="ellipse;whiteSpace=wrap;html=1;align=center;" vertex="1" parent="1">
          <mxGeometry x="880" y="470" width="100" height="40" as="geometry" />
        </mxCell>
        <mxCell id="rAxvqdYZocQZOTgR6kvq-98" value="City" style="ellipse;whiteSpace=wrap;html=1;align=center;" vertex="1" parent="1">
          <mxGeometry x="850" y="550" width="100" height="40" as="geometry" />
        </mxCell>
        <mxCell id="rAxvqdYZocQZOTgR6kvq-102" style="edgeStyle=orthogonalEdgeStyle;rounded=0;orthogonalLoop=1;jettySize=auto;html=1;exitX=0.75;exitY=1;exitDx=0;exitDy=0;entryX=0.012;entryY=0.621;entryDx=0;entryDy=0;entryPerimeter=0;endArrow=none;endFill=0;" edge="1" parent="1" source="rAxvqdYZocQZOTgR6kvq-94" target="rAxvqdYZocQZOTgR6kvq-98">
          <mxGeometry relative="1" as="geometry" />
        </mxCell>
        <mxCell id="rAxvqdYZocQZOTgR6kvq-105" value="&lt;strong&gt;Dependent&lt;/strong&gt;" style="shape=ext;margin=3;double=1;whiteSpace=wrap;html=1;align=center;" vertex="1" parent="1">
          <mxGeometry x="-165" y="265" width="100" height="40" as="geometry" />
        </mxCell>
        <mxCell id="rAxvqdYZocQZOTgR6kvq-106" value="&lt;span style=&quot;border-bottom: 1px dotted&quot;&gt;DependentName &lt;/span&gt;" style="ellipse;whiteSpace=wrap;html=1;align=center;" vertex="1" parent="1">
          <mxGeometry x="-140" y="490" width="100" height="40" as="geometry" />
        </mxCell>
        <mxCell id="rAxvqdYZocQZOTgR6kvq-108" value="belongs to" style="shape=rhombus;perimeter=rhombusPerimeter;whiteSpace=wrap;html=1;align=center;" vertex="1" parent="1">
          <mxGeometry x="630" y="310" width="120" height="60" as="geometry" />
        </mxCell>
        <mxCell id="rAxvqdYZocQZOTgR6kvq-109" value="" style="endArrow=none;html=1;rounded=0;exitX=0.457;exitY=0.935;exitDx=0;exitDy=0;exitPerimeter=0;entryX=0.5;entryY=0;entryDx=0;entryDy=0;" edge="1" parent="1" source="rAxvqdYZocQZOTgR6kvq-57" target="rAxvqdYZocQZOTgR6kvq-108">
          <mxGeometry relative="1" as="geometry">
            <mxPoint x="630" y="279.65999999999997" as="sourcePoint" />
            <mxPoint x="790" y="279.65999999999997" as="targetPoint" />
          </mxGeometry>
        </mxCell>
        <mxCell id="rAxvqdYZocQZOTgR6kvq-110" value="1" style="resizable=0;html=1;whiteSpace=wrap;align=right;verticalAlign=bottom;" connectable="0" vertex="1" parent="rAxvqdYZocQZOTgR6kvq-109">
          <mxGeometry x="1" relative="1" as="geometry" />
        </mxCell>
        <mxCell id="rAxvqdYZocQZOTgR6kvq-111" value="" style="endArrow=none;html=1;rounded=0;exitX=0.5;exitY=1;exitDx=0;exitDy=0;entryX=0;entryY=0.5;entryDx=0;entryDy=0;" edge="1" parent="1" source="rAxvqdYZocQZOTgR6kvq-108" target="rAxvqdYZocQZOTgR6kvq-94">
          <mxGeometry relative="1" as="geometry">
            <mxPoint x="530" y="459.99999999999994" as="sourcePoint" />
            <mxPoint x="690" y="459.99999999999994" as="targetPoint" />
            <Array as="points">
              <mxPoint x="690" y="460" />
            </Array>
          </mxGeometry>
        </mxCell>
        <mxCell id="rAxvqdYZocQZOTgR6kvq-112" value="M" style="resizable=0;html=1;whiteSpace=wrap;align=left;verticalAlign=bottom;" connectable="0" vertex="1" parent="rAxvqdYZocQZOTgR6kvq-111">
          <mxGeometry x="-1" relative="1" as="geometry">
            <mxPoint x="-10" y="40" as="offset" />
          </mxGeometry>
        </mxCell>
        <mxCell id="rAxvqdYZocQZOTgR6kvq-113" value="" style="resizable=0;html=1;whiteSpace=wrap;align=right;verticalAlign=bottom;" connectable="0" vertex="1" parent="rAxvqdYZocQZOTgR6kvq-111">
          <mxGeometry x="1" relative="1" as="geometry" />
        </mxCell>
        <mxCell id="rAxvqdYZocQZOTgR6kvq-114" value="Works on" style="shape=rhombus;perimeter=rhombusPerimeter;whiteSpace=wrap;html=1;align=center;" vertex="1" parent="1">
          <mxGeometry x="365" y="470" width="120" height="60" as="geometry" />
        </mxCell>
        <mxCell id="rAxvqdYZocQZOTgR6kvq-115" value="WorkingHours" style="ellipse;whiteSpace=wrap;html=1;align=center;" vertex="1" parent="1">
          <mxGeometry x="375" y="590" width="100" height="40" as="geometry" />
        </mxCell>
        <mxCell id="rAxvqdYZocQZOTgR6kvq-116" value="" style="endArrow=none;html=1;rounded=0;exitX=0.5;exitY=1;exitDx=0;exitDy=0;entryX=0.5;entryY=0;entryDx=0;entryDy=0;" edge="1" parent="1" source="rAxvqdYZocQZOTgR6kvq-114" target="rAxvqdYZocQZOTgR6kvq-115">
          <mxGeometry relative="1" as="geometry">
            <mxPoint x="480" y="540" as="sourcePoint" />
            <mxPoint x="640" y="540" as="targetPoint" />
            <Array as="points" />
          </mxGeometry>
        </mxCell>
        <mxCell id="rAxvqdYZocQZOTgR6kvq-117" value="" style="endArrow=none;html=1;rounded=0;exitX=0.612;exitY=1.086;exitDx=0;exitDy=0;exitPerimeter=0;entryX=0.04;entryY=0.46;entryDx=0;entryDy=0;entryPerimeter=0;" edge="1" parent="1" source="rAxvqdYZocQZOTgR6kvq-44" target="rAxvqdYZocQZOTgR6kvq-114">
          <mxGeometry relative="1" as="geometry">
            <mxPoint x="170" y="360" as="sourcePoint" />
            <mxPoint x="330" y="360" as="targetPoint" />
            <Array as="points">
              <mxPoint x="210" y="500" />
            </Array>
          </mxGeometry>
        </mxCell>
        <mxCell id="rAxvqdYZocQZOTgR6kvq-118" value="M" style="resizable=0;html=1;whiteSpace=wrap;align=left;verticalAlign=bottom;" connectable="0" vertex="1" parent="rAxvqdYZocQZOTgR6kvq-117">
          <mxGeometry x="-1" relative="1" as="geometry">
            <mxPoint y="307" as="offset" />
          </mxGeometry>
        </mxCell>
        <mxCell id="rAxvqdYZocQZOTgR6kvq-119" value="" style="resizable=0;html=1;whiteSpace=wrap;align=right;verticalAlign=bottom;" connectable="0" vertex="1" parent="rAxvqdYZocQZOTgR6kvq-117">
          <mxGeometry x="1" relative="1" as="geometry" />
        </mxCell>
        <mxCell id="rAxvqdYZocQZOTgR6kvq-120" value="" style="endArrow=none;html=1;rounded=0;exitX=1;exitY=0.5;exitDx=0;exitDy=0;entryX=0;entryY=0.75;entryDx=0;entryDy=0;" edge="1" parent="1" source="rAxvqdYZocQZOTgR6kvq-114" target="rAxvqdYZocQZOTgR6kvq-94">
          <mxGeometry relative="1" as="geometry">
            <mxPoint x="520" y="499.66" as="sourcePoint" />
            <mxPoint x="680" y="499.66" as="targetPoint" />
            <Array as="points">
              <mxPoint x="710" y="500" />
            </Array>
          </mxGeometry>
        </mxCell>
        <mxCell id="rAxvqdYZocQZOTgR6kvq-121" value="M" style="resizable=0;html=1;whiteSpace=wrap;align=left;verticalAlign=bottom;" connectable="0" vertex="1" parent="rAxvqdYZocQZOTgR6kvq-120">
          <mxGeometry x="-1" relative="1" as="geometry" />
        </mxCell>
        <mxCell id="rAxvqdYZocQZOTgR6kvq-122" value="" style="resizable=0;html=1;whiteSpace=wrap;align=right;verticalAlign=bottom;" connectable="0" vertex="1" parent="rAxvqdYZocQZOTgR6kvq-120">
          <mxGeometry x="1" relative="1" as="geometry" />
        </mxCell>
        <mxCell id="rAxvqdYZocQZOTgR6kvq-123" value="" style="endArrow=none;html=1;rounded=0;exitX=0.602;exitY=-0.026;exitDx=0;exitDy=0;exitPerimeter=0;entryX=0;entryY=0.5;entryDx=0;entryDy=0;" edge="1" parent="1" source="rAxvqdYZocQZOTgR6kvq-51" target="rAxvqdYZocQZOTgR6kvq-105">
          <mxGeometry relative="1" as="geometry">
            <mxPoint x="-170" y="514.6600000000001" as="sourcePoint" />
            <mxPoint x="-150" y="400" as="targetPoint" />
            <Array as="points">
              <mxPoint x="-220" y="400" />
            </Array>
          </mxGeometry>
        </mxCell>
        <mxCell id="rAxvqdYZocQZOTgR6kvq-124" style="edgeStyle=orthogonalEdgeStyle;rounded=0;orthogonalLoop=1;jettySize=auto;html=1;exitX=1;exitY=0.5;exitDx=0;exitDy=0;entryX=0.181;entryY=0.996;entryDx=0;entryDy=0;entryPerimeter=0;endArrow=none;endFill=0;" edge="1" parent="1" source="rAxvqdYZocQZOTgR6kvq-52" target="rAxvqdYZocQZOTgR6kvq-105">
          <mxGeometry relative="1" as="geometry" />
        </mxCell>
        <mxCell id="rAxvqdYZocQZOTgR6kvq-125" style="edgeStyle=orthogonalEdgeStyle;rounded=0;orthogonalLoop=1;jettySize=auto;html=1;exitX=1;exitY=0.5;exitDx=0;exitDy=0;entryX=0.581;entryY=0.927;entryDx=0;entryDy=0;entryPerimeter=0;endArrow=none;endFill=0;" edge="1" parent="1" source="rAxvqdYZocQZOTgR6kvq-106" target="rAxvqdYZocQZOTgR6kvq-105">
          <mxGeometry relative="1" as="geometry" />
        </mxCell>
        <mxCell id="rAxvqdYZocQZOTgR6kvq-126" value="has dependent" style="shape=rhombus;double=1;perimeter=rhombusPerimeter;whiteSpace=wrap;html=1;align=center;" vertex="1" parent="1">
          <mxGeometry x="-165" y="140" width="120" height="60" as="geometry" />
        </mxCell>
        <mxCell id="rAxvqdYZocQZOTgR6kvq-127" value="" style="endArrow=none;html=1;rounded=0;entryX=0;entryY=0.75;entryDx=0;entryDy=0;exitX=1;exitY=0.5;exitDx=0;exitDy=0;" edge="1" parent="1" source="rAxvqdYZocQZOTgR6kvq-126" target="rAxvqdYZocQZOTgR6kvq-44">
          <mxGeometry relative="1" as="geometry">
            <mxPoint x="-30" y="180" as="sourcePoint" />
            <mxPoint x="130" y="180" as="targetPoint" />
          </mxGeometry>
        </mxCell>
        <mxCell id="rAxvqdYZocQZOTgR6kvq-128" value="1" style="resizable=0;html=1;whiteSpace=wrap;align=right;verticalAlign=bottom;" connectable="0" vertex="1" parent="rAxvqdYZocQZOTgR6kvq-127">
          <mxGeometry x="1" relative="1" as="geometry">
            <mxPoint x="-110" y="-10" as="offset" />
          </mxGeometry>
        </mxCell>
        <mxCell id="rAxvqdYZocQZOTgR6kvq-129" value="" style="endArrow=none;html=1;rounded=0;exitX=0.5;exitY=1;exitDx=0;exitDy=0;entryX=0.562;entryY=0.022;entryDx=0;entryDy=0;entryPerimeter=0;" edge="1" parent="1" source="rAxvqdYZocQZOTgR6kvq-126" target="rAxvqdYZocQZOTgR6kvq-105">
          <mxGeometry relative="1" as="geometry">
            <mxPoint x="-185" y="240" as="sourcePoint" />
            <mxPoint x="-25" y="240" as="targetPoint" />
          </mxGeometry>
        </mxCell>
        <mxCell id="rAxvqdYZocQZOTgR6kvq-130" value="1" style="resizable=0;html=1;whiteSpace=wrap;align=right;verticalAlign=bottom;" connectable="0" vertex="1" parent="rAxvqdYZocQZOTgR6kvq-129">
          <mxGeometry x="1" relative="1" as="geometry">
            <mxPoint x="4" y="-16" as="offset" />
          </mxGeometry>
        </mxCell>
      </root>
    </mxGraphModel>
  </diagram>
</mxfile>
